<?xml version="1.0"?><svg width="408" height="398" xmlns="http://www.w3.org/2000/svg" xmlns:xlink="http://www.w3.org/1999/xlink">
  <g id="layer1" display="inline">
    <path d="m51.331051,326.718323c-2.079212,0.60968 -4.19318,0.81012 -6.23267,0.648438c-2.03949,-0.161682 -4.014462,-0.6828 -5.72224,-1.651184c-1.707779,-0.968384 -3.15752,-2.393616 -3.902439,-4.455139c-0.744923,-2.061523 -0.782013,-4.7854 0.640179,-8.17395c-3.347649,1.039429 -6.54637,2.500793 -9.648451,4.408691c-2.462309,1.504883 -4.84202,3.332581 -7.10042,5.519043c-2.258389,2.186462 -4.39872,4.730896 -6.32492,7.708252c-2.04947,3.20813 -3.86624,6.903564 -5.14306,11.142517c-1.16805,3.910339 -1.66945,8.255005 -1.20377,12.758545c0.46567,4.50354 1.8983,9.167114 4.64725,13.550232c0,0 0.00001,0 0.00001,0c2.84708,4.045044 6.5559,7.342896 10.835441,9.738464c4.27952,2.395508 9.13031,3.888489 14.100079,4.335449c7.91473,0.855042 16.233723,-0.026489 24.232559,-2.690247c7.495941,-2.507385 14.620895,-6.341797 21.161301,-11.051025c6.112305,-4.400696 11.860611,-9.473206 17.246368,-15.053772c5.385773,-5.580566 10.409126,-11.668701 15.106873,-18.031799c6.042664,-8.128418 12.047607,-16.446716 18.346031,-24.612183c7.256989,-9.404419 14.881973,-18.716919 23.161865,-27.489929c8.171783,-8.637329 16.859741,-16.782043 26.459167,-23.435669c0,0 0,0 0,-0.000061c8.696487,-5.962524 17.960114,-10.856934 27.568756,-12.729187c0.000031,0 0.000031,0 0.000031,0c9.838745,-1.978577 19.906281,-2.906006 29.761719,-2.532166c9.855408,0.373901 19.496246,2.050537 28.51532,5.222168c8.515778,2.922729 16.503967,7.176208 23.745422,12.356995c7.241455,5.180786 13.735229,11.287292 19.31543,17.936401c6.639465,7.889343 12.052032,16.548889 16.465729,25.478394c4.413696,8.929443 7.829437,18.126892 10.471985,27.17865c3.685669,12.676453 5.824799,25.101257 7.019775,36.789612c1.194977,11.688416 1.447937,22.640503 1.275848,32.520752l-7.420105,-0.508057c1.519653,-22.831421 -0.065216,-45.790405 -5.938049,-67.44043c-5.145142,-18.823608 -13.322845,-36.724243 -25.332703,-51.173523c-10.917755,-13.196594 -25.175415,-23.710693 -40.996704,-29.141907c0,0 -0.000031,0 -0.000031,0c-17.365265,-6.194946 -37.091034,-6.324036 -56.017578,-2.502991c-8.817017,1.689819 -17.512604,6.37146 -25.916122,12.133972c-9.162033,6.392883 -17.567856,14.342285 -25.646835,22.956543c-7.971725,8.53363 -15.436462,17.73584 -22.703735,27.267761c0,0 0,0 0,0c-6.070618,7.968079 -11.994789,16.278748 -18.142967,24.65625c-9.105179,12.540894 -19.92308,24.61377 -33.286255,34.386658c-6.639877,4.855835 -14.162933,9.025146 -22.522343,11.88269c-0.000011,0 -0.000011,0 -0.000031,0c-8.350689,2.834106 -17.395931,3.96991 -26.51585,3.032104c-0.000031,0 -0.000031,0 -0.00005,0c-10.6504,-0.798828 -21.474871,-6.19696 -28.943371,-16.454407c-6.02621,-9.813965 -7.1592,-21.002197 -4.12136,-30.857178c1.42933,-4.573608 3.4345,-8.784424 5.87992,-12.593079c2.70967,-4.21991 5.39126,-7.224731 7.80559,-9.605408c2.414351,-2.380676 4.584381,-4.129517 6.611431,-5.580078c1.64156,-1.189026 3.176039,-2.200317 4.732288,-3.132751c1.556252,-0.932434 3.134911,-1.785645 4.87837,-2.611938c1.743439,-0.826355 3.652252,-1.626465 5.87365,-2.402527c2.221413,-0.776062 4.756599,-1.529114 7.745232,-2.195801c2.70462,-0.603333 5.281689,-0.680176 7.590118,-0.324402c2.308411,0.355835 4.349159,1.14209 6.04361,2.256653c3.38887,2.229065 5.360092,5.736572 5.805222,9.964905c0.22258,2.114197 -0.164337,3.82135 -0.940193,5.223267c-0.775856,1.401917 -1.944458,2.499817 -3.342018,3.405029c-2.795139,1.810425 -6.51165,2.874695 -9.97831,3.972351c0,0 0,0 0,0l0.000011,0z" id="path2326" fill-rule="evenodd" fill="#006305"/>
    <path d="m174.586868,191.711731c-1.052231,-0.296997 -2.037033,-0.606445 -2.994156,-0.834595c-0.957153,-0.22821 -1.886932,-0.382751 -2.817184,-0.464355c-1.58931,-0.159546 -3.230637,-0.273315 -4.877457,-0.193665c-1.64682,0.079712 -3.292114,0.345459 -4.822266,0.835632c-1.530182,0.490173 -2.94339,1.205872 -4.115112,2.111084c-1.171738,0.905273 -2.099335,2.001221 -2.678589,3.155762c-0.329895,0.657593 -0.656769,1.541321 -0.975128,2.512451c-0.318329,0.97113 -0.626465,2.029907 -0.964279,3.014587c-0.675552,1.96936 -1.481857,3.671692 -3.104172,3.498352c-0.638245,-0.068176 -1.796112,-0.82373 -3.17981,-2.151855c-1.383698,-1.328064 -2.979248,-3.236389 -4.461334,-5.534424c-1.531708,-2.352051 -2.958954,-5.113586 -4.088806,-7.967346c-1.129852,-2.853821 -1.961304,-5.794373 -2.515686,-8.442139c-0.145447,-0.694702 -0.30722,-1.494568 -0.468994,-2.402893c-0.398407,-2.189514 -0.800415,-5.018616 -0.842621,-8.515625c-0.042206,-3.497009 0.272552,-7.670227 1.511169,-12.420471c0.854401,-3.176971 2.143921,-6.522675 4.026306,-9.8797c1.882385,-3.356995 4.358856,-6.726685 7.572083,-9.860321c3.057434,-2.880737 6.563507,-5.474792 10.453613,-7.63269c3.890137,-2.157867 8.165375,-3.878754 12.675446,-5.02063c5.0755,-1.309204 10.412811,-2.127617 15.888702,-2.425659c5.475922,-0.298035 11.090302,-0.07431 16.673035,0.62204c0,0 0,0 0,0c6.154266,0.749878 12.415039,2.136749 18.649048,4.208649c6.234039,2.071869 12.441132,4.829468 18.459747,8.272552c4.674438,2.674133 8.828674,5.508301 12.552582,8.38382c0,0 0,0 0,0c5.21524,4.019745 9.641022,8.036194 13.531158,11.962616c3.890106,3.926422 7.243011,7.766205 10.244385,11.52298c6.002747,7.51358 10.632629,14.674957 14.835114,22.034149c3.898926,6.830566 7.493805,13.842957 11.15448,21.785339c3.660675,7.942383 7.3909,16.816223 11.245972,27.485352c3.855042,10.669067 7.837402,23.143494 11.631042,38.3302c1.89682,7.593384 3.740112,15.865112 5.457947,24.909668c1.717834,9.044617 3.309326,18.864197 4.691223,29.512878l11.339264,-1.495911c-6.294037,-49.911133 -20.612762,-100.670044 -49.403046,-144.59021c-11.008759,-16.796661 -24.827728,-32.571075 -41.992004,-45.219421c0,0 0,0 0,0c-14.781891,-10.923553 -32.480377,-18.77066 -51.844177,-21.431091c-10.55687,-1.501678 -22.19693,-1.561401 -34.289459,1.065979c0,0.000031 0,0.000031 0,0.000031c-8.948029,1.898499 -18.022293,6.113739 -26.131378,13.001038c-6.740662,6.000336 -11.732849,13.577698 -14.577629,22.081635c-0.695038,2.147644 -1.256546,4.30722 -1.688034,6.468628c-0.677505,3.400391 -0.999939,6.588318 -1.084274,9.569885c-0.084412,2.981567 0.070099,5.757507 0.385162,8.348999c0,0 0,0 0,0c0.539337,4.686462 1.532356,8.799805 2.774086,12.516907c1.241753,3.717163 2.737091,7.040955 4.454575,10.133728c1.867188,3.421753 4.05722,6.56781 6.694016,9.563354c2.63681,2.995544 5.721268,5.847961 9.546249,8.529663c2.447052,1.691467 5.167328,3.235962 8.22821,4.551453c2.463745,1.058838 5.168701,1.820374 7.962036,2.221802c2.793304,0.401428 5.673279,0.442383 8.472794,0.127441c0,0 0,0 0,0c3.891571,-0.541504 7.39801,-1.710571 10.304489,-3.259644c2.906433,-1.549072 5.216614,-3.468994 6.888855,-5.464478c1.672211,-1.995544 2.71228,-4.060425 3.177094,-5.970337c0.464828,-1.909973 0.358749,-3.663452 -0.242188,-5.166626c-0.682739,-1.707825 -1.65976,-3.515503 -2.887375,-5.237549c-1.227585,-1.722046 -2.704636,-3.360229 -4.312027,-4.793457c-1.607391,-1.433228 -3.343781,-2.657898 -5.028671,-3.615723c-0.842392,-0.478943 -1.670898,-0.891907 -2.462067,-1.253357c-0.791183,-0.361389 -1.544266,-0.669128 -2.245316,-0.979675c-0.125671,-0.039612 -0.254364,-0.077759 -0.386642,-0.114807z" id="path3197" fill-rule="evenodd" fill="#006305"/>
    <path d="m271.276398,164.189423c-24.988663,-28.026611 -49.65947,-57.403564 -65.32312,-91.66156c0,0 0,0 0,0c-3.004303,-6.564636 -5.679596,-13.381561 -7.016418,-20.526852c0,0 0,0 0,0c-0.299225,-1.598572 -0.528778,-3.226723 -0.585938,-4.87516c0,0 0,0 0,0c0,0 0,0 0,0c0,0 0,0 0,0c-0.013794,-0.396759 -0.016907,-0.79974 0.002014,-1.207359c0,0 0,0 0,0c0,0 0,0 0,0c0.004974,-0.105011 0.01178,-0.212681 0.021484,-0.322792c0.143036,-0.010098 0.286011,-0.019989 0.429108,-0.029869c0.049713,-0.003029 0.099304,-0.007019 0.149139,-0.010231c0.000092,0 0.000198,0 0.000305,0l0,0c0.000397,0.000061 0.000763,0.000092 0.001007,0.00016c0.184418,0.026882 0.369019,0.053711 0.55365,0.080502c0.531815,0.077179 1.064041,0.15424 1.596527,0.230988c-0.002991,0.039703 -0.005005,0.089901 -0.006012,0.150421c-0.011902,0.30637 -0.005005,0.634609 0.010178,0.983551c0.062119,1.451389 0.293106,2.937439 0.589981,4.452419c0,0 0,0 0.000031,0c1.331238,6.780918 4.007919,13.334347 7.024338,19.770847c0,0 0,0 0,0c15.777328,33.590546 40.551468,62.329559 65.76387,90.040283l-3.210144,2.924652z" id="path3217" fill-rule="evenodd" fill="#006305"/>
    <path d="m224.501526,4c0,0 -0.588776,0.12799 -1.634491,0.43396c-1.045715,0.30597 -2.549225,0.79691 -4.337921,1.59955c-1.788727,0.80267 -3.862274,1.92218 -6.001556,3.47095c-2.139282,1.54879 -4.3414,3.5299 -6.365326,5.9797c-2.132736,2.705899 -3.949371,5.78061 -5.299713,9.002719c-1.350388,3.222101 -2.234314,6.584841 -2.668793,9.815302c-0.664505,4.618439 -0.552765,8.972477 -0.120087,12.4758c0.432693,3.503361 1.154633,6.16098 1.565491,7.566257c0.026794,0.091583 0.054596,0.183323 0.083481,0.274963c0.625046,2.058018 1.808212,4.12537 3.388992,5.862057c1.58078,1.736671 3.552246,3.135292 5.619827,3.965275c2.067642,0.829956 4.218277,1.089149 6.180466,0.730286c1.962219,-0.358856 3.725067,-1.331699 5.229889,-2.797298c1.52179,-1.482182 2.47406,-3.052521 3.127014,-4.506779c0.652924,-1.454224 1.004532,-2.80331 1.152679,-4.025631c0.296265,-2.444672 -0.232758,-4.42313 -1.656479,-6.116032c-0.258835,-0.30777 -0.598679,-0.616329 -1.004837,-0.94006c-1.377777,-1.138489 -3.537994,-2.484871 -5.721161,-4.370911c-1.091583,-0.943027 -2.184784,-2.012848 -3.178162,-3.190338c-0.993378,-1.177521 -1.885864,-2.462559 -2.591614,-3.790382c-0.780487,-1.469048 -1.330383,-2.99865 -1.563004,-4.433958c-0.3452,-2.12945 -0.391739,-4.311279 -0.145584,-6.444971c0.246185,-2.133669 0.784622,-4.218569 1.56015,-6.175819c0,-0.000031 0,-0.000031 0,-0.000031c1.133575,-2.726039 2.702133,-5.080229 4.355362,-6.984829c1.653275,-1.9046 3.388687,-3.3652 4.917145,-4.44894c1.528519,-1.08371 2.849747,-1.79767 3.75676,-2.25742c0.907013,-0.45975 1.400452,-0.67245 1.35144,-0.69342l0.000031,0z" id="path3223" fill-rule="evenodd" fill="#006305"/>
    <path d="m344.023193,168.276825c0,0 -0.745117,-0.071991 -2.123077,-0.116058c-1.37796,-0.044006 -3.396057,-0.056396 -5.942902,0.191162c-2.546844,0.247559 -5.625946,0.759857 -9.04187,1.83429c-3.415924,1.074432 -7.166382,2.718994 -10.962097,5.204895c-3.608704,2.68634 -6.753265,6.03064 -9.181915,9.766907c-2.42865,3.736267 -4.138306,7.854492 -5.081177,11.976807c0,0 0,0 0,0c-1.306915,5.727539 -1.566406,11.083557 -1.360779,15.522339c0.205658,4.438782 0.85199,7.964783 1.3638,10.299561c0.15686,0.767578 0.299957,1.414063 0.417206,1.927307c0.587067,2.570129 1.747223,5.198669 3.330109,7.531189c1.582916,2.332458 3.584564,4.36554 5.77594,5.849304c2.191345,1.483765 4.566223,2.419067 6.895996,2.678284c2.329803,0.259155 4.608826,-0.155151 6.700287,-1.278076c2.091614,-1.123047 3.527435,-2.624634 4.492096,-4.266846c0.96463,-1.642212 1.459198,-3.429993 1.620483,-5.22876c0.161285,-1.798706 -0.010986,-3.610718 -0.431549,-5.353027c-0.420593,-1.74231 -1.089661,-3.417175 -1.970612,-4.960999c-0.549072,-0.962158 -1.360321,-1.968811 -2.333405,-3.06427c-1.829102,-2.124451 -4.346191,-4.51416 -6.635681,-7.374207c-1.144745,-1.430054 -2.228455,-2.974976 -3.140411,-4.615173c-0.911926,-1.640137 -1.650787,-3.376404 -2.135925,-5.135193c-0.443176,-1.597778 -0.65271,-3.227539 -0.603516,-4.754395c0.085999,-2.67572 0.630127,-5.369629 1.614868,-7.906494c0.984772,-2.536926 2.409302,-4.915771 4.185852,-7.021851c0,0 0,0 0,0c2.744141,-3.068604 5.918579,-5.330383 8.928162,-6.966278c3.009613,-1.635864 5.85788,-2.65448 8.221802,-3.314758c2.363953,-0.660278 4.251892,-0.968597 5.520721,-1.148682c1.268799,-0.180084 1.927399,-0.236694 1.877594,-0.276978z" id="path3227" fill-rule="evenodd" fill="#006305"/>
    <path d="m244.219818,209.012817c0,0 0.748779,-0.306641 2.107788,-0.825256c1.359024,-0.518555 3.33078,-1.248169 5.800171,-2.0495c4.938782,-1.602539 11.903961,-3.471558 19.794403,-4.331787c3.964844,-0.446594 8.193024,-0.549194 12.420654,-0.198669c4.227631,0.350586 8.450287,1.158936 12.390015,2.346863c4.836121,1.52533 8.971649,3.646423 12.157623,5.680603c3.185974,2.03418 5.43927,3.960449 6.705475,5.095459c0.537598,0.481812 1.059998,1.002747 1.561127,1.558044c1.870728,2.123474 3.391937,4.671631 4.370026,7.309082c0.978119,2.637451 1.416107,5.358582 1.300903,7.861145c-0.115204,2.502563 -0.775848,4.783813 -1.901093,6.638367c-1.125244,1.854614 -2.709167,3.281311 -4.686249,4.198425c-2.105957,0.976868 -4.127472,1.20575 -5.981781,1.004761c-1.854279,-0.200928 -3.545166,-0.83429 -5.038666,-1.685974c-1.493469,-0.851624 -2.789185,-1.921021 -3.886902,-3.084229c-1.097687,-1.163269 -2,-2.419983 -2.7276,-3.746948c-0.12558,-0.229004 -0.244415,-0.474243 -0.3591,-0.734802c-0.671173,-1.651978 -1.225647,-4.030457 -2.243835,-6.749817c-1.018188,-2.71936 -2.519958,-5.763733 -4.628204,-8.45636c-2.301239,-2.944763 -5.294952,-5.423157 -8.24054,-6.825623c-3.514404,-1.673523 -7.245697,-2.804199 -10.833832,-3.495972c0,0 0,0 0,0c-3.994354,-0.780212 -7.830261,-1.079712 -11.271271,-1.1203c-3.44101,-0.040588 -6.489258,0.175415 -8.99704,0.449463c-2.507813,0.274048 -4.478302,0.605286 -5.811859,0.841309c-1.333557,0.236023 -2.033325,0.376526 -2.000214,0.321716z" id="path3233" fill-rule="evenodd" fill="#006305"/>
    <path d="m201.964813,250.723816c0,0 -0.794525,0.346985 -2.207901,0.997681c-1.413391,0.650757 -3.447891,1.60675 -5.916458,2.879211c-2.468597,1.2724 -5.371536,2.864014 -8.488708,4.809387c-3.117203,1.945313 -6.44632,4.249146 -9.749374,6.91156c-2.967392,2.358643 -6.071213,5.399475 -8.892166,9.192139c-2.283783,2.769409 -4.181915,6.955811 -5.158005,12.246521c-0.703903,5.435913 0.71666,10.652832 3.663895,15.103638c2.166229,2.744934 4.285919,4.752563 6.218414,6.210632c1.932495,1.45813 3.678055,2.36792 5.175201,2.921387c2.884827,1.238464 5.109436,1.966125 6.476379,2.394409c2.847656,0.892395 5.979462,1.188538 8.910309,0.865479c2.930878,-0.32312 5.659637,-1.255676 7.938538,-2.638489c2.2789,-1.382813 4.120361,-3.203979 5.418137,-5.297607c1.297806,-2.093689 2.060806,-4.457458 2.142532,-7.034119c0.081696,-2.576782 -0.500793,-4.756165 -1.518494,-6.570984c-1.0177,-1.814819 -2.468216,-3.260437 -4.07074,-4.343811c-1.602509,-1.083313 -3.346252,-1.801758 -5.016602,-2.202454c-1.670349,-0.400635 -3.263611,-0.48822 -4.751434,-0.334412c-1.545135,0.159729 -3.386505,0.951904 -5.64444,1.630005c-0.778671,0.25531 -1.566345,0.708496 -2.344391,1.15686c-0.778046,0.448425 -1.547195,0.887634 -2.28241,1.073914c-1.136871,0.686035 -2.802063,0.140137 -3.847565,-1.155029c-0.693878,-0.928772 -1.079865,-2.144531 -1.233353,-3.421082c-0.153488,-1.27655 -0.0755,-2.610535 0.152054,-3.827332c0.089691,-0.490417 0.202881,-0.967346 0.336868,-1.426697c0.886826,-3.040527 2.323013,-5.911743 3.865128,-8.448364c0,0 0,0 0,0c2.249115,-3.724915 4.814178,-6.963867 7.297989,-9.695984c2.483841,-2.732117 4.886887,-4.961609 6.932663,-6.724365c2.045776,-1.762817 3.737549,-3.062073 4.890259,-3.934021c1.15271,-0.871887 1.770081,-1.318604 1.703674,-1.338074z" id="path3310" fill-rule="evenodd" fill="#006305"/>
    <path d="m393.511505,320.854004c-1.407471,-0.82666 -2.503601,-1.596436 -3.35022,-2.376221c0,0 0,0 0,0c-1.265564,-1.123413 -1.939331,-2.265503 -2.254639,-3.448242c-0.315369,-1.182739 -0.267273,-2.401306 0.005981,-3.564209c0.273621,-1.162903 0.779114,-2.26532 1.376343,-3.178223c0.59729,-0.912903 1.287109,-1.633789 1.871155,-2.052673c0.593079,-0.425415 1.573303,-0.924133 2.409119,-1.473206c0.835815,-0.549072 1.526123,-1.157593 1.451294,-1.878601c-0.148193,-1.427551 -1.555359,-2.838257 -3.531006,-4.025269c-1.975647,-1.186951 -4.505432,-2.11322 -6.759491,-2.84021c-0.035583,-0.011475 -0.070984,-0.022766 -0.106354,-0.034058c-1.378906,-0.443726 -2.567413,-0.702393 -3.727142,-0.867859c-1.159729,-0.165466 -2.293365,-0.237793 -3.592712,-0.220825c-1.299347,0.016968 -2.766998,0.117798 -4.589081,0.425476c-1.822113,0.307617 -4.00705,0.808167 -6.660553,1.890686c-2.385284,1.069153 -5.017578,2.586365 -7.701019,4.865784c-2.683472,2.279419 -5.427856,5.350952 -7.735443,9.349243c-1.336121,2.258728 -2.576324,4.807495 -3.621857,7.671021c-1.045532,2.863464 -1.89621,6.043884 -2.431458,9.518616c-0.44101,2.885803 -0.70752,5.941772 -0.802673,9.159302c-0.095093,3.217468 -0.01709,6.596985 0.177856,10.111633c0.361633,6.815308 1.019135,14.346436 1.804108,22.676514c0.392487,4.165039 0.812286,8.529907 1.197388,13.105835c0.385132,4.575928 0.736481,9.362854 0.949554,14.372742l-6.712677,0.285706c-0.69519,-16.064087 -3.005554,-32.718689 -3.765198,-50.170898c-0.318298,-6.447876 -0.238373,-13.380798 0.964081,-20.621216c0,0 0,0 0,0c1.114532,-6.622253 3.484589,-13.210632 7.258789,-19.269348c0,0 0,0 0,0c3.914551,-6.572327 10.172729,-12.443115 18.625977,-15.893921c4.269165,-1.484497 8.584259,-2.127869 12.759033,-2.039124c3.467133,0.076111 6.324219,0.601501 8.767059,1.269409c2.054169,0.548584 3.816742,1.145752 5.416656,1.768188c1.599915,0.622437 3.036682,1.271912 4.409973,1.973083c2.746582,1.402344 5.270813,2.994934 8.036011,5.284912c0.295166,0.238525 0.594055,0.485535 0.896912,0.741882c1.34082,1.134827 2.435852,2.542786 3.256104,4.06665c0.820251,1.523926 1.365845,3.162354 1.654724,4.769165c0.577881,3.213562 0.107483,6.263428 -0.84436,8.33667c-0.787537,1.71521 -1.875,2.868469 -3.07312,3.611206c-1.19812,0.742798 -2.510254,1.078735 -3.849426,1.136414c-1.339111,0.057556 -2.707947,-0.162537 -4.076416,-0.585144c-1.368408,-0.422607 -2.737915,-1.048767 -4.103638,-1.850891l0.000366,0z" id="path3925" fill-rule="evenodd" fill="#006305"/>
    <path d="m340.955231,382.43335c-4.853088,-8.167786 -14.135162,-11.787537 -22.212555,-16.032471c-16.096313,-8.459167 -28.776001,-23.190125 -35.868591,-40.017761c-1.015015,-3.92511 -2.512115,-7.97406 -1.700287,-12.081238c15.999298,14.395935 38.736908,15.379822 53.724335,29.971375c7.967804,7.757385 9.942291,20.091125 9.240143,31.101318c-0.098083,1.538208 0.640411,3.132874 1.813232,4.195129" id="path3948" fill-rule="evenodd" fill="#006305"/>
    <path d="m158.223328,123.341766c0,0 -0.541672,0.677521 -1.536499,1.873077c-0.996063,1.196259 -2.447754,2.911957 -4.317657,4.965637c-1.87059,2.052399 -4.161285,4.442261 -6.850403,6.946533c-2.688385,2.505463 -5.778305,5.121399 -9.207153,7.619232c-3.04895,2.252075 -6.792084,4.459229 -11.186836,6.197968c-3.268372,1.485748 -7.803772,2.230804 -13.166626,1.798401c-5.432205,-0.732758 -10.100746,-3.460602 -13.633049,-7.462952c-2.08786,-2.804901 -3.475044,-5.373596 -4.380913,-7.618103c-0.905624,-2.245453 -1.330917,-4.166992 -1.476624,-5.757477c-0.44606,-3.106628 -0.570877,-5.444366 -0.628967,-6.87561c-0.121292,-2.981964 0.405502,-6.082581 1.479027,-8.828979c1.074501,-2.746124 2.683632,-5.139191 4.61132,-6.98053c1.927696,-1.841331 4.164551,-3.145905 6.523895,-3.855194c2.358398,-0.709503 4.839447,-0.832031 7.349228,-0.241547c2.50856,0.591156 4.462448,1.719635 5.950562,3.174286c1.487144,1.454414 2.506699,3.230354 3.135956,5.059692c0.630486,1.828682 0.870628,3.699341 0.823898,5.416138c-0.046997,1.717804 -0.376923,3.278725 -0.912292,4.675568c-0.555,1.450623 -1.799164,3.022316 -3.040611,5.02655c-0.448662,0.685974 -1.090874,1.329193 -1.726616,1.963806c-0.634766,0.634857 -1.25853,1.263367 -1.62912,1.924805c-0.957886,0.919678 -0.864258,2.669098 0.115402,4.01593c0.716049,0.910339 1.789978,1.59906 2.983078,2.07959c1.192413,0.47934 2.50087,0.750641 3.735046,0.847687c0.496559,0.040405 0.986549,0.055298 1.465546,0.04541c3.166061,-0.06662 6.311577,-0.707245 9.162132,-1.537018c0,0 0,0 0,0c4.181458,-1.203796 7.975708,-2.838989 11.259323,-4.527771c3.283646,-1.688751 6.061462,-3.429718 8.294586,-4.947571c2.234116,-1.517609 3.927902,-2.812958 5.069534,-3.699768c1.141663,-0.88681 1.733643,-1.366455 1.734833,-1.297791z" id="path2423" fill-rule="evenodd" fill="#006305"/>
  </g>
</svg>
